<svg width="2756" height="2007" viewBox="0 0 2756 2007" fill="none" xmlns="http://www.w3.org/2000/svg">
<g style="mix-blend-mode:multiply">
<path fill-rule="evenodd" clip-rule="evenodd" d="M1191.21 334.004C1215.45 351.223 1245.59 357.996 1274.87 352.805L2002.78 223.745C2058.8 213.813 2113.25 247.838 2128.89 302.536L2175.12 464.282C2190.61 518.497 2163 575.715 2110.92 597.317L1949.61 664.22C1869.01 697.648 1856.72 806.717 1927.86 857.245L2709.24 1412.26C2767.41 1453.58 2772.05 1538.27 2718.73 1585.69L2277.09 1978.53C2231.12 2019.42 2160.67 2015.12 2120.01 1968.95L1285.38 1021.08C1253.99 985.439 1203.41 973.711 1159.54 991.905L312.212 1343.34C250.624 1368.88 180.574 1334.75 162.734 1270.51L4.71556 701.472C-12.805 638.379 27.8149 573.908 92.2901 562.476L580.569 475.904C665.82 460.789 701.715 358.234 644.498 293.254L572.591 211.592C531.87 165.346 536.61 94.7833 583.151 54.3992L613.767 27.8323C652.44 -5.72529 709.05 -8.47559 750.794 21.1752L1191.21 334.004Z" fill="url(#paint0_linear_139_21019)"/>
</g>
<defs>
<linearGradient id="paint0_linear_139_21019" x1="1198.16" y1="688.333" x2="1192.37" y2="1753.34" gradientUnits="userSpaceOnUse">
<stop stop-color="#480D75"/>
<stop offset="1" stop-color="#480D75" stop-opacity="0"/>
</linearGradient>
</defs>
</svg>
