<svg width="211" height="56" viewBox="0 0 211 56" fill="none" xmlns="http://www.w3.org/2000/svg">
<path d="M-9.55254e-08 43.7581L-1.01022e-07 46.276L0.781395 46.276C5.29612 46.276 9.81085 47.0574 13.9783 48.6202L13.9783 28.5643C13.9783 24.831 15.3674 22.8341 17.3643 21.445C19.2744 22.8341 20.8372 24.9178 20.8372 28.5643L20.8372 52.1798C22.4868 53.3085 24.0496 54.6108 25.4388 56L25.4388 28.4775C25.4388 22.2264 22.1395 18.7535 18.4062 16.5829C18.0589 16.4093 17.7116 16.2357 17.3643 16.062C17.0171 16.2357 16.6698 16.4093 16.3225 16.5829C11.8946 18.9271 9.2031 23.5287 9.28992 28.4775L9.28992 43.845L4.60155 43.845L4.60155 28.738C4.60155 16.3225 10.0713 9.72403 17.3643 5.64341C24.2233 9.81085 30.1271 16.3225 30.1271 28.738L30.1271 43.7581L34.7287 43.7581L34.7287 28.4775C34.7287 13.7178 27.0015 5.64341 18.2326 0.434109C17.9721 0.260465 17.6248 0.0868217 17.3643 3.79069e-08C17.1039 0.0868217 16.7566 0.260465 16.4961 0.434109C7.9876 5.29612 -2.99465e-08 13.7178 -6.21673e-08 28.4775L-9.55254e-08 43.7581Z" fill="#B71234"/>
<path d="M54.1156 16.4483C54.1156 16.8824 54.0288 17.4033 54.0288 17.8374L54.0288 20.4421C54.0288 20.963 54.0288 21.4839 54.1156 22.0048C54.2025 22.0917 54.2893 22.1785 54.6366 22.1785L54.9838 22.1785L54.9838 22.439C54.4629 22.439 54.0288 22.439 53.5947 22.439C53.2474 22.439 52.8133 22.439 52.2924 22.439L52.2924 22.1785L52.6397 22.1785C52.8133 22.1785 52.9001 22.1785 53.0738 22.0917C53.1606 22.0048 53.1606 21.918 53.1606 21.7444C53.1606 21.3971 53.1606 20.963 53.1606 20.3552L53.1606 17.7506C53.1606 17.2297 53.1606 16.7955 53.1606 16.3614L52.6397 16.3614C52.2056 16.3614 51.8583 16.3614 51.4242 16.4483C51.3373 16.4483 51.3373 16.6219 51.2505 16.8824L51.1637 17.4901L50.9032 17.4901L50.9032 16.9692C50.9032 16.7955 50.9032 16.4483 50.8164 16.0141L53.6815 16.0141L56.1993 16.0141C56.1125 16.5351 56.1125 16.9692 56.1125 17.4901L55.8521 17.4901L55.8521 16.8824C55.8521 16.7955 55.8521 16.6219 55.7652 16.5351C55.6784 16.4483 55.5916 16.4483 55.5048 16.4483C55.1575 16.4483 54.8102 16.4483 54.3761 16.4483L54.1156 16.4483ZM60.5404 20.2684L57.9358 20.2684L57.6753 21.0498C57.5017 21.3103 57.4149 21.6576 57.4149 21.918C57.4149 22.0048 57.4149 22.0048 57.5017 22.0917C57.5885 22.0917 57.6753 22.1785 57.7621 22.1785L58.1963 22.2653L58.1963 22.5258C57.9358 22.5258 57.5885 22.5258 57.2412 22.5258C56.8939 22.5258 56.4598 22.5258 56.1125 22.5258L56.1125 22.2653C56.2862 22.2653 56.373 22.2653 56.5466 22.1785C56.6335 22.0917 56.7203 22.0048 56.7203 21.918C56.8939 21.4839 57.1544 21.0498 57.4149 20.5289L58.6304 17.7506C58.9776 16.9692 59.1513 16.4483 59.3249 16.101L59.5854 16.101L61.8428 21.3971C61.9296 21.6576 62.0164 21.8312 62.1032 22.0917C62.1032 22.1785 62.19 22.1785 62.2769 22.2653C62.4505 22.2653 62.5373 22.3521 62.711 22.3521L62.711 22.6126C62.3637 22.6126 61.9296 22.6126 61.5823 22.6126C61.235 22.6126 60.8009 22.6126 60.28 22.6126L60.28 22.3521L60.7141 22.3521C60.8009 22.3521 60.8877 22.3521 60.9745 22.2653C61.0614 22.2653 61.0614 22.1785 61.0614 22.1785C61.0614 22.0048 60.9745 21.918 60.8877 21.7444L60.5404 20.2684ZM58.1094 19.9211L60.4536 19.9211L59.3249 17.2297L58.1094 19.9211ZM65.142 22.0048L66.0102 22.0048C66.618 22.0048 67.0521 22.0048 67.3125 22.0048C67.573 22.0048 67.7466 21.918 68.0071 21.918L68.2676 20.8762L68.528 20.8762C68.4412 21.4839 68.3544 22.0048 68.3544 22.439C68.0071 22.5258 67.573 22.5258 67.2257 22.5258L65.0552 22.5258L63.666 22.5258L63.666 22.2653C63.9265 22.1785 64.0133 22.0917 64.1001 21.918C64.1869 21.4839 64.1869 20.963 64.1869 20.5289L64.1869 18.011C64.1869 17.4901 64.1869 16.9692 64.1001 16.5351C64.1001 16.4483 63.9265 16.3614 63.7528 16.3614L63.2319 16.3614L63.2319 16.101L64.7947 16.101C65.142 16.101 65.4893 16.101 66.097 16.101L66.097 16.3614L65.5761 16.3614C65.4025 16.3614 65.3156 16.3614 65.3156 16.5351C65.2288 16.8824 65.2288 17.2297 65.3156 17.6638L65.3156 20.5289L65.3156 21.8312L65.3156 22.0048L65.142 22.0048ZM70.8722 22.0048L71.7404 22.0048C72.3482 22.0048 72.7823 22.0048 73.0428 22.0048C73.3032 22.0048 73.4769 21.918 73.7373 21.918L73.9978 20.8762L74.3451 20.8762C74.2583 21.4839 74.1714 22.0048 74.1714 22.439C73.8242 22.5258 73.39 22.5258 73.0428 22.5258L70.8722 22.5258L69.4831 22.5258L69.4831 22.2653C69.7435 22.1785 69.8304 22.0917 69.9172 21.918C70.004 21.4839 70.004 20.963 69.9172 20.5289L69.9172 18.011C69.9172 17.4901 69.9172 16.9692 69.8304 16.5351C69.8304 16.4483 69.6567 16.3614 69.4831 16.3614L69.1358 16.3614L69.1358 16.101L70.6117 16.101C70.959 16.101 71.3063 16.101 71.9141 16.101L71.9141 16.3614L71.3063 16.3614C71.1327 16.3614 71.0459 16.3614 71.0459 16.5351C70.8722 16.7955 70.8722 17.2297 70.8722 17.5769L70.8722 20.4421L70.8722 21.7444L70.8722 22.0048ZM74.9528 22.1785L75.2133 22.1785C75.4738 22.1785 75.6474 22.0917 75.7342 22.0048C75.8211 21.3971 75.8211 20.7025 75.8211 20.0948L75.8211 18.532C75.8211 17.8374 75.8211 17.2297 75.7342 16.5351C75.6474 16.4483 75.5606 16.3614 75.3001 16.3614L74.9528 16.3614L74.9528 16.101C75.4738 16.101 75.9947 16.101 76.4288 16.101C76.8629 16.101 77.2102 16.101 77.5575 16.101L77.5575 16.3614L77.2102 16.3614C77.0366 16.3614 76.9497 16.3614 76.7761 16.4483C76.6893 16.5351 76.6893 16.7087 76.6893 16.8824C76.6893 17.2297 76.6893 17.7506 76.6893 18.6188L76.6893 20.1816C76.6893 20.7893 76.6893 21.4839 76.7761 22.0917C76.8629 22.1785 76.9497 22.2653 77.297 22.2653L77.5575 22.2653L77.5575 22.5258C77.2102 22.5258 76.7761 22.5258 76.342 22.5258C75.9079 22.5258 75.3869 22.5258 74.9528 22.5258L74.9528 22.1785ZM79.9885 17.056L79.9885 20.1816C79.9885 20.8762 79.9885 21.3971 79.9885 21.6576C79.9885 21.8312 79.9885 21.918 80.0753 22.0917C80.249 22.1785 80.3358 22.1785 80.5094 22.1785L80.7699 22.1785L80.7699 22.439C80.4226 22.439 80.1621 22.439 79.9017 22.439L78.6862 22.439L78.6862 22.1785L79.0335 22.1785C79.2071 22.1785 79.2939 22.1785 79.3807 22.0917C79.4676 22.0048 79.4676 21.918 79.4676 21.7444C79.4676 21.3971 79.5544 20.963 79.5544 20.4421L79.5544 18.1847C79.5544 17.7506 79.5544 17.3165 79.5544 16.9692C79.5544 16.8824 79.5544 16.7087 79.4676 16.6219C79.3807 16.5351 79.3807 16.5351 79.2939 16.4483C79.2071 16.3614 79.1203 16.3614 78.9466 16.3614L78.6862 16.3614L78.6862 16.101L79.5544 16.101C79.728 16.101 79.9885 16.101 80.249 16.101C80.5094 16.4483 80.8567 16.7955 81.1172 17.1428C81.3776 17.4901 81.6381 17.8374 81.8986 18.1847L83.4614 20.0948C84.0691 20.7893 84.4164 21.2234 84.6769 21.4839L84.6769 18.6188C84.6769 17.9242 84.6769 17.3165 84.59 16.6219C84.5032 16.5351 84.4164 16.4483 84.0691 16.4483L83.7218 16.4483L83.7218 16.1878L84.8505 16.1878C85.111 16.1878 85.4583 16.1878 85.8924 16.1878L85.8924 16.4483L85.6319 16.4483C85.3714 16.4483 85.1978 16.5351 85.111 16.7087C85.0242 16.8824 85.111 17.4901 85.111 18.7056L85.111 20.7025C85.111 21.2234 85.111 21.918 85.1978 22.6994C84.9373 22.6994 84.6769 22.6126 84.5032 22.5258C84.4164 22.5258 84.3296 22.439 84.3296 22.3521C83.9823 22.0048 83.635 21.5707 83.2877 21.1366L79.9885 17.056ZM87.9761 17.056L87.9761 20.1816C87.9761 20.8762 87.9761 21.3971 87.9761 21.6576C87.9761 21.8312 87.9761 21.918 88.0629 22.0917C88.2366 22.1785 88.3234 22.1785 88.497 22.1785L88.7575 22.1785L88.7575 22.439C88.4102 22.439 88.1497 22.439 87.8893 22.439L86.5869 22.439L86.5869 22.1785L86.9342 22.1785C87.1079 22.1785 87.1947 22.1785 87.2815 22.0917C87.3683 22.0048 87.3683 21.918 87.3683 21.7444C87.3683 21.3971 87.4552 20.963 87.4552 20.4421L87.4552 18.1847C87.4552 17.7506 87.4552 17.3165 87.4552 16.9692C87.4552 16.8824 87.4552 16.7087 87.3683 16.6219C87.2815 16.5351 87.2815 16.5351 87.1947 16.4483C87.1079 16.3614 87.0211 16.3614 86.8474 16.3614L86.5869 16.3614L86.5869 16.101L87.4552 16.101C87.6288 16.101 87.8893 16.101 88.1497 16.101C88.4102 16.4483 88.7575 16.7955 89.018 17.1428C89.2784 17.4901 89.5389 17.8374 89.7994 18.1847L91.3621 20.0948C91.9699 20.7893 92.3172 21.2234 92.5776 21.4839L92.5776 18.6188C92.5776 17.9242 92.5776 17.3165 92.4908 16.6219C92.404 16.5351 92.3172 16.4483 91.9699 16.4483L91.7094 16.4483L91.7094 16.1878L92.8381 16.1878C93.0986 16.1878 93.4459 16.1878 93.88 16.1878L93.88 16.4483L93.5327 16.4483C93.2722 16.4483 93.0986 16.5351 93.0118 16.7087C92.9249 16.8824 93.0118 17.4901 93.0118 18.7056L93.0118 20.7025C93.0118 21.2234 93.0117 21.918 93.0986 22.6994C92.8381 22.6994 92.5776 22.6126 92.404 22.5258C92.3172 22.5258 92.2304 22.439 92.2304 22.3521C91.8831 21.918 91.449 21.5707 91.1017 21.0498L87.9761 17.056ZM98.6552 20.2684L96.0505 20.2684L95.7032 21.0498C95.5296 21.3103 95.4428 21.6576 95.4428 21.918C95.4428 22.0048 95.4428 22.0048 95.5296 22.0917C95.6164 22.0917 95.7032 22.1785 95.79 22.1785L96.2242 22.2653L96.2242 22.5258C95.9637 22.5258 95.6164 22.5258 95.2691 22.5258C94.9218 22.5258 94.4877 22.5258 94.1404 22.5258L94.1404 22.2653L94.3141 22.2653C94.4877 22.2653 94.5745 22.2653 94.7482 22.1785C94.835 22.0917 94.9218 22.0048 94.9218 21.918C95.0955 21.4839 95.3559 21.0498 95.6164 20.5289L96.8319 17.7506C97.1792 16.9692 97.3528 16.4483 97.5265 16.101L97.8738 16.101L100.131 21.3971C100.218 21.6576 100.305 21.8312 100.392 22.0917C100.392 22.1785 100.478 22.1785 100.565 22.2653C100.739 22.2653 100.826 22.3521 100.999 22.3521L100.999 22.6126C100.652 22.6126 100.218 22.6126 99.8707 22.6126C99.5234 22.6126 99.0893 22.6126 98.5683 22.6126L98.5683 22.3521L99.0024 22.3521C99.0893 22.3521 99.1761 22.3521 99.2629 22.2653C99.3497 22.2653 99.3497 22.1785 99.3497 22.1785C99.3497 22.0048 99.2629 21.918 99.1761 21.7444L98.6552 20.2684ZM96.2242 19.9211L98.4815 19.9211L97.3528 17.2297L96.2242 19.9211ZM105.08 16.3614L105.08 16.101L106.469 16.101L107.771 16.101L107.771 16.3614L107.424 16.3614C107.164 16.3614 106.99 16.4483 106.903 16.5351C106.816 17.056 106.816 17.4901 106.816 18.011L106.816 19.7475C106.816 20.1816 106.816 20.6157 106.903 21.0498C106.99 21.3103 107.164 21.5707 107.424 21.6576C107.771 21.8312 108.206 21.918 108.64 21.918C109.074 21.918 109.508 21.8312 109.942 21.6576C110.202 21.5707 110.376 21.3103 110.463 21.0498C110.637 20.5289 110.637 20.0079 110.637 19.487L110.637 17.7506C110.637 17.3165 110.637 16.8824 110.55 16.4483C110.463 16.3614 110.289 16.2746 109.942 16.2746L109.682 16.2746L109.682 16.0141L110.897 16.0141C111.157 16.0141 111.505 16.0141 111.939 16.0141L111.939 16.2746L111.592 16.2746C111.331 16.2746 111.244 16.3614 111.157 16.4483C111.071 16.8824 110.984 17.3165 111.071 17.7506L111.071 19.4002C111.071 19.9211 111.071 20.4421 110.984 20.963C110.897 21.2234 110.723 21.4839 110.55 21.6576C110.289 21.918 110.029 22.0917 109.768 22.1785C109.421 22.3521 108.987 22.3521 108.553 22.3521C108.119 22.3521 107.685 22.2653 107.337 22.1785C107.077 22.0917 106.73 21.918 106.556 21.7444C106.382 21.5707 106.209 21.3971 106.209 21.1366C106.122 20.7025 106.035 20.3552 106.122 19.9211L106.122 17.7506C106.122 17.3165 106.122 16.7955 106.035 16.3614C105.948 16.2746 105.861 16.1878 105.514 16.1878L105.08 16.1878L105.08 16.3614ZM107.685 14.625C107.945 14.625 108.206 14.8855 108.206 15.1459C108.206 15.4064 107.945 15.6669 107.685 15.6669C107.424 15.6669 107.164 15.4064 107.164 15.1459C107.164 14.9723 107.251 14.8855 107.337 14.7986C107.424 14.625 107.598 14.625 107.685 14.625ZM109.682 14.625C109.942 14.625 110.202 14.8855 110.202 15.1459C110.202 15.3196 110.116 15.4064 110.029 15.4932C109.942 15.58 109.855 15.6669 109.682 15.6669C109.508 15.6669 109.421 15.58 109.334 15.4932C109.161 15.3196 109.161 14.9723 109.334 14.7986C109.421 14.625 109.508 14.625 109.682 14.625ZM114.63 22.0048L115.499 22.0048C116.019 22.0048 116.54 22.0048 116.801 22.0048C117.061 22.0048 117.235 21.918 117.495 21.918L117.756 20.8762L118.016 20.8762C117.93 21.4839 117.843 22.0048 117.843 22.439C117.495 22.5258 117.061 22.5258 116.714 22.5258L114.544 22.5258L113.154 22.5258L113.154 22.2653C113.328 22.1785 113.502 22.0917 113.588 21.918C113.675 21.4839 113.675 20.963 113.675 20.5289L113.675 18.0979C113.675 17.5769 113.675 17.056 113.588 16.6219C113.502 16.5351 113.415 16.4483 113.241 16.4483L112.72 16.4483L112.72 16.1878L114.109 16.1878C114.457 16.1878 114.891 16.1878 115.412 16.1878L115.412 16.4483L114.891 16.4483C114.717 16.4483 114.63 16.4483 114.544 16.6219C114.457 16.9692 114.457 17.4033 114.457 17.7506L114.457 20.6157L114.457 21.918L114.63 22.0048ZM118.624 22.1785L118.885 22.1785C119.145 22.1785 119.319 22.0917 119.406 22.0048C119.492 21.3971 119.492 20.7025 119.492 20.0948L119.492 18.532C119.492 17.8374 119.492 17.2297 119.406 16.5351C119.319 16.4483 119.232 16.3614 118.971 16.3614L118.624 16.3614L118.624 16.101C119.145 16.101 119.579 16.101 120.1 16.101C120.621 16.101 120.882 16.101 121.229 16.101L121.229 16.3614L120.882 16.3614C120.708 16.3614 120.621 16.3614 120.447 16.4483C120.361 16.5351 120.361 16.7087 120.361 16.8824C120.361 17.2297 120.361 17.7506 120.361 18.6188L120.361 20.1816C120.361 20.7893 120.361 21.4839 120.447 22.0917C120.534 22.1785 120.621 22.2653 120.968 22.2653L121.229 22.2653L121.229 22.5258C120.882 22.5258 120.447 22.5258 120.013 22.5258C119.579 22.5258 119.145 22.5258 118.624 22.5258L118.624 22.1785ZM125.049 18.8793L128.088 21.7444L128.348 22.0048C128.435 22.0917 128.435 22.0917 128.522 22.0917C128.609 22.0917 128.695 22.0917 128.782 22.0917L128.782 22.3521C128.522 22.3521 128.348 22.3521 128.088 22.3521C127.827 22.3521 127.654 22.3521 127.48 22.3521L124.354 19.4002C124.268 19.3134 124.181 19.2265 124.181 19.2265C124.181 19.2265 124.094 19.3134 124.094 19.4002L124.094 20.7893C124.094 21.1366 124.094 21.4839 124.094 21.918C124.181 22.0048 124.268 22.0917 124.615 22.0917L124.962 22.0917L124.962 22.3521C124.441 22.3521 124.007 22.3521 123.66 22.3521C123.313 22.3521 122.792 22.3521 122.357 22.3521L122.357 22.0917L122.705 22.0917C122.965 22.0917 123.052 22.0917 123.139 22.0048C123.226 21.6576 123.226 21.2234 123.226 20.8762L123.226 17.8374C123.226 17.4033 123.226 16.8824 123.139 16.4483C123.052 16.3614 122.965 16.2746 122.705 16.2746L122.357 16.2746L122.357 16.0141L123.573 16.0141L124.962 16.0141L124.962 16.2746L124.702 16.2746C124.528 16.2746 124.441 16.2746 124.354 16.3614C124.268 16.4483 124.268 16.5351 124.268 16.6219C124.268 16.7955 124.268 17.1428 124.268 17.8374L124.268 19.0529L124.354 19.0529C124.615 18.8793 124.788 18.7056 124.962 18.532C125.136 18.3583 125.396 18.0979 125.83 17.6638L127.133 16.3614L127.133 16.0141C127.48 16.0141 127.74 16.0141 127.914 16.0141C128.088 16.0141 128.435 16.0141 128.695 16.0141L128.695 16.2746L128.435 16.2746C128.261 16.2746 128.088 16.2746 127.914 16.3614C127.567 16.6219 127.22 16.8824 126.872 17.2297L125.049 18.8793ZM129.043 19.2265C129.043 18.3583 129.39 17.4901 129.998 16.8824C130.692 16.2746 131.647 15.9273 132.516 16.0141C133.384 16.0141 134.252 16.2746 134.947 16.8824C135.554 17.4901 135.815 18.2715 135.815 19.1397C135.815 20.0948 135.468 20.963 134.773 21.6576C134.078 22.3521 133.123 22.6994 132.168 22.6994C131.561 22.6994 131.04 22.6126 130.519 22.2653C130.085 22.0048 129.651 21.5707 129.39 21.1366C129.13 20.5289 128.956 19.9211 129.043 19.2265ZM129.911 18.9661C129.911 19.5738 129.998 20.1816 130.258 20.7025C130.432 21.1366 130.779 21.5707 131.213 21.8312C131.647 22.0917 132.082 22.1785 132.516 22.1785C132.95 22.1785 133.384 22.0917 133.731 21.8312C134.078 21.5707 134.339 21.3103 134.513 20.8762C134.686 20.3552 134.86 19.8343 134.773 19.3134C134.773 18.7924 134.686 18.1847 134.426 17.6638C134.252 17.2297 133.905 16.8824 133.557 16.6219C133.123 16.3614 132.689 16.2746 132.168 16.2746C131.734 16.2746 131.3 16.3614 130.953 16.6219C130.606 16.7955 130.345 17.1428 130.171 17.4901C130.085 18.011 129.911 18.4452 129.911 18.9661ZM136.596 19.2265C136.596 18.3583 136.944 17.4901 137.551 16.8824C138.246 16.2746 139.201 15.9273 140.069 16.0141C140.937 16.0141 141.806 16.2746 142.5 16.8824C143.108 17.4901 143.368 18.2715 143.368 19.1397C143.368 20.0948 143.021 20.963 142.326 21.6576C141.632 22.3521 140.677 22.6994 139.722 22.6994C139.114 22.6994 138.593 22.6126 138.072 22.2653C137.638 22.0048 137.204 21.5707 136.944 21.1366C136.683 20.5289 136.509 19.9211 136.596 19.2265ZM137.464 18.9661C137.464 19.5738 137.551 20.1816 137.812 20.7025C137.985 21.1366 138.333 21.5707 138.767 21.8312C139.201 22.0917 139.635 22.1785 140.069 22.1785C140.503 22.1785 140.937 22.0917 141.285 21.8312C141.632 21.5707 141.892 21.3103 142.066 20.8762C142.24 20.3552 142.413 19.8343 142.326 19.3134C142.326 18.7924 142.24 18.1847 141.979 17.6638C141.806 17.2297 141.458 16.8824 141.111 16.6219C140.677 16.3614 140.243 16.2746 139.722 16.2746C139.288 16.2746 138.854 16.3614 138.506 16.6219C138.159 16.7955 137.899 17.1428 137.725 17.4901C137.551 18.011 137.464 18.4452 137.464 18.9661ZM145.886 22.0048L146.754 22.0048C147.275 22.0048 147.796 22.0048 148.057 22.0048C148.317 22.0048 148.491 21.918 148.751 21.918L149.012 20.8762L149.272 20.8762C149.185 21.4839 149.099 22.0048 149.099 22.439C148.751 22.5258 148.317 22.5258 147.97 22.5258L145.799 22.5258L144.41 22.5258L144.41 22.2653C144.671 22.1785 144.757 22.0917 144.844 21.918C144.931 21.4839 144.931 20.963 144.931 20.5289L144.931 18.0979C144.931 17.5769 144.931 17.056 144.844 16.6219C144.757 16.5351 144.671 16.4483 144.497 16.4483L143.976 16.4483L143.976 16.1878L145.365 16.1878C145.713 16.1878 146.147 16.1878 146.668 16.1878L146.668 16.4483L146.147 16.4483C145.973 16.4483 145.886 16.4483 145.799 16.6219C145.713 16.9692 145.713 17.4033 145.713 17.7506L145.713 20.6157L145.713 21.918L145.886 22.0048Z" fill="white"/>
<path d="M52.7265 42.093C52.7265 40.0093 52.8133 38.2729 52.8133 36.7101C52.8133 35.1473 52.8133 33.324 52.7265 31.3271C52.7265 30.8062 52.6397 30.4589 52.3792 30.2853C51.8583 30.1116 51.3373 30.0248 50.8164 30.1116L50.8164 29.5039C51.9451 29.5907 52.987 29.5907 53.7683 29.5907C54.5497 29.5907 55.5048 29.5907 56.7203 29.5039L56.7203 30.1116C56.1994 30.0248 55.6784 30.1116 55.1575 30.2853C54.897 30.4589 54.8102 30.8062 54.8102 31.3271L54.7234 36.1023L59.0645 36.1023L63.4924 36.1023L63.4056 31.3271C63.4056 30.8062 63.3187 30.4589 63.0583 30.2853C62.5373 30.1116 62.0164 30.0248 61.4955 30.1116L61.4955 29.5039C62.6242 29.5907 63.666 29.5907 64.4474 29.5907C65.2288 29.5907 66.1838 29.5907 67.3125 29.5039L67.3125 30.1116C66.7916 30.0248 66.2707 30.1116 65.7497 30.2853C65.4893 30.4589 65.4025 30.8062 65.4025 31.3271C65.4025 33.4108 65.3156 35.1473 65.3156 36.7101C65.3156 38.2729 65.3156 40.0961 65.4025 42.093C65.4025 42.6139 65.4893 42.9612 65.7497 43.1349C66.2707 43.3085 66.7916 43.3953 67.3125 43.3085L67.3125 43.9163C66.1838 43.8294 65.142 43.8294 64.3606 43.8294C63.5792 43.8294 62.6242 43.8294 61.4955 43.9163L61.4955 43.3085C62.0164 43.3953 62.5373 43.3085 63.0583 43.048C63.3187 42.8744 63.4056 42.5271 63.4056 42.0062L63.4924 36.7969C61.8428 36.7969 60.4536 36.7969 59.1513 36.7969L54.7234 36.7969L54.8102 42.0062C54.8102 42.5271 54.897 42.8744 55.1575 43.048C55.6784 43.2217 56.1994 43.3085 56.7203 43.3085L56.7203 43.9163C55.5916 43.8294 54.5497 43.8294 53.7683 43.8294C52.987 43.8294 52.0319 43.8294 50.9032 43.9163L50.9032 43.3085C51.4242 43.3953 51.9451 43.3085 52.466 43.1349C52.5528 42.9612 52.7265 42.6139 52.7265 42.093ZM70.959 44.1767C70.2645 44.1767 69.5699 44.0031 68.9621 43.569C68.4412 43.1349 68.1807 42.5271 68.2676 41.8325C68.2676 41.0512 68.4412 40.3566 68.9621 39.7488C69.5699 39.1411 70.2645 38.7938 71.0459 38.707L74.4319 38.0124C74.4319 37.3178 74.2583 36.5364 73.7373 36.0155C73.2164 35.4946 72.6087 35.2341 71.9141 35.3209C71.6536 35.3209 71.3063 35.4077 71.0459 35.4946C70.7854 35.5814 70.5249 35.6682 70.3513 35.755L69.7435 37.231L69.049 36.8837L69.049 35.4077C69.6567 34.9736 70.2645 34.6263 70.959 34.3659C71.48 34.1922 72.0009 34.0186 72.5218 34.0186C73.4769 33.9318 74.5187 34.2791 75.2133 34.8868C75.8211 35.6682 76.1683 36.7101 76.0815 37.6651L76.0815 38.8806L76.0815 42.093C75.9947 42.4403 76.1683 42.7876 76.342 43.1349C76.6893 43.3085 77.1234 43.3953 77.4707 43.3085L77.4707 43.8294L75.9947 43.8294L74.3451 43.8294L74.3451 42.1798L72.0009 43.9163C71.6536 44.0899 71.3063 44.1767 70.959 44.1767ZM74.4319 38.9674L74.4319 38.4465L71.8273 39.1411C71.3063 39.2279 70.8722 39.4884 70.5249 39.9225C70.2645 40.2698 70.0908 40.7039 70.0908 41.2248C70.0908 41.6589 70.1776 42.093 70.5249 42.4403C70.8722 42.7876 71.3063 42.8744 71.7404 42.8744C72.2614 42.8744 72.8691 42.7008 73.3032 42.3535C73.7373 42.0062 74.0846 41.6589 74.4319 41.3116C74.4319 40.4434 74.4319 39.662 74.4319 38.9674ZM81.4645 44.1767C80.7699 44.1767 80.0753 44.0031 79.4676 43.569C78.9466 43.1349 78.6862 42.5271 78.773 41.8325C78.6862 41.0512 78.9466 40.3566 79.4676 39.7488C80.0753 39.1411 80.7699 38.7938 81.5513 38.707L84.9373 38.0124C84.9373 37.3178 84.7637 36.5364 84.2428 36.0155C83.7218 35.4946 83.1141 35.2341 82.4195 35.3209C82.159 35.3209 81.8118 35.4077 81.5513 35.4946C81.2908 35.5814 81.0304 35.6682 80.8567 35.755L80.249 37.231L79.5544 36.8837L79.5544 35.4077C80.1621 34.9736 80.7699 34.6263 81.4645 34.3659C81.9854 34.1922 82.5063 34.0186 83.0273 34.0186C83.9823 33.9318 85.0242 34.2791 85.7187 34.8868C86.3265 35.6682 86.6738 36.7101 86.587 37.6651L86.587 38.8806L86.587 42.093C86.5001 42.4403 86.6738 42.7876 86.8474 43.1349C87.1947 43.3085 87.6288 43.3953 87.9761 43.3085L87.9761 43.8294L86.4133 43.8294L84.7637 43.8294L84.7637 42.1798L82.4195 43.9163C82.159 44.0899 81.8118 44.1767 81.4645 44.1767ZM84.8505 38.9674L84.8505 38.4465L82.2459 39.1411C81.7249 39.2279 81.2908 39.4884 80.9435 39.9225C80.6831 40.2698 80.5094 40.7039 80.5094 41.2248C80.5094 41.6589 80.5963 42.093 80.9435 42.4403C81.2908 42.7876 81.7249 42.8744 82.159 42.8744C82.68 42.8744 83.2877 42.7008 83.7218 42.3535C84.1559 42.0062 84.5032 41.6589 84.8505 41.3116C84.8505 40.4434 84.8505 39.662 84.8505 38.9674ZM89.973 36.6232C89.973 36.1023 89.8862 35.755 89.7125 35.5814C89.2784 35.4077 88.8443 35.3209 88.3234 35.4077L88.3234 34.8868C88.9311 34.8 89.4521 34.7132 89.973 34.6263C90.4939 34.4527 91.1017 34.2791 91.6226 34.1054L91.9699 34.2791C91.8831 34.6263 91.7963 34.9736 91.7963 35.3209L91.7963 36.276C92.404 35.6682 93.0986 35.0605 93.7931 34.5395C94.3141 34.1922 95.0086 34.0186 95.6164 34.0186C96.7451 33.9318 97.7869 34.3659 98.5683 35.1473C99.3497 36.0155 99.697 37.1442 99.697 38.2729C99.6102 39.8356 98.9156 41.2248 97.7869 42.1798C96.7451 43.3085 95.3559 44.0031 93.7931 44.0899C93.0986 44.0899 92.4908 43.9163 91.8831 43.6558L91.7094 43.569L91.7963 47.7364C91.7963 48.2574 91.8831 48.6046 92.1435 48.7783C92.5776 48.9519 93.0118 49.0387 93.5327 48.9519L93.5327 49.4729C92.5776 49.386 91.7094 49.386 90.928 49.386C90.1466 49.386 89.2784 49.386 88.3234 49.4729L88.3234 49.0387C88.7575 49.1256 89.2784 49.0387 89.6257 48.8651C89.7994 48.6915 89.8862 48.3442 89.973 47.8232C89.973 45.4791 90.0598 43.4822 90.0598 41.8325L89.973 36.6232ZM94.5745 43.1349C95.5296 43.2217 96.3978 42.7876 97.0056 42.093C97.6133 41.2248 97.9606 40.1829 97.8738 39.0543C97.8738 38.0992 97.6133 37.1442 97.0056 36.3628C96.4846 35.6682 95.6164 35.3209 94.7482 35.3209C93.4459 35.4077 92.3172 36.1023 91.7963 37.231L91.7963 41.6589C92.1435 42.1798 92.5776 42.5271 93.0118 42.7876C93.5327 43.048 94.0536 43.2217 94.5745 43.1349ZM107.164 37.0574L107.077 36.4496C107.077 36.276 106.99 36.1023 106.99 36.0155C106.99 35.9287 106.903 35.755 106.816 35.6682C106.643 35.4077 106.382 35.2341 106.209 35.1473C105.775 34.8868 105.34 34.8 104.906 34.8C104.385 34.8 103.778 34.9736 103.344 35.2341C102.996 35.5814 102.736 36.0155 102.823 36.5364C102.823 36.9705 102.996 37.3178 103.344 37.5783C103.951 37.9256 104.646 38.0992 105.34 38.186C106.209 38.2729 107.077 38.6201 107.858 39.1411C108.379 39.5752 108.64 40.1829 108.553 40.7907C108.553 41.7457 108.119 42.7008 107.337 43.3085C106.469 44.0031 105.427 44.3504 104.299 44.2636C103.778 44.2636 103.344 44.2636 102.823 44.1767C102.215 44.0899 101.694 43.9163 101.173 43.8294C101.26 43.2217 101.26 42.7876 101.347 42.3535C101.347 42.0062 101.347 41.4853 101.347 40.9643L101.954 40.9643L102.041 42.093C102.041 42.2667 102.128 42.4403 102.215 42.5271C102.302 42.7008 102.388 42.7876 102.562 42.8744C102.823 43.0481 103.083 43.2217 103.43 43.3085C103.864 43.4822 104.299 43.569 104.733 43.569C105.34 43.569 106.035 43.3953 106.556 43.048C106.99 42.7008 107.251 42.093 107.251 41.4853C107.251 41.0512 106.99 40.617 106.643 40.3566C105.861 40.0093 105.08 39.7488 104.299 39.662C103.517 39.5752 102.736 39.3147 102.041 38.7938C101.607 38.3597 101.347 37.6651 101.433 37.0574C101.433 36.1891 101.868 35.4077 102.475 34.8868C103.257 34.2791 104.299 34.0186 105.254 34.0186C105.775 34.0186 106.295 34.1054 106.816 34.1922C107.251 34.2791 107.685 34.4527 108.119 34.6263C108.032 35.0605 107.945 35.4946 107.945 35.755C107.945 36.1891 107.858 36.5364 107.858 36.9705L107.164 37.0574ZM112.633 44.1767C111.939 44.1767 111.244 44.0031 110.637 43.569C110.116 43.1349 109.855 42.5271 109.942 41.8325C109.942 41.0512 110.116 40.3566 110.637 39.7488C111.244 39.1411 111.939 38.7938 112.72 38.707L116.106 38.0124C116.106 37.3178 115.933 36.5364 115.412 36.0155C114.891 35.4946 114.283 35.2341 113.588 35.3209C113.328 35.3209 112.981 35.4077 112.72 35.4946C112.46 35.5814 112.199 35.6682 111.939 35.755L111.331 37.231L110.723 37.0574L110.723 35.5814C111.331 35.1473 111.939 34.8 112.633 34.5395C113.154 34.3659 113.675 34.1922 114.196 34.1922C115.151 34.1054 116.193 34.4527 116.888 35.0605C117.495 35.8419 117.843 36.8837 117.756 37.8387L117.756 39.0543L117.756 42.2667C117.669 42.6139 117.843 42.9612 118.016 43.3085C118.364 43.4822 118.798 43.569 119.145 43.4822L119.145 44.0031L117.495 43.9163L115.846 43.9163L115.846 42.2667L113.502 44.0031C113.328 44.0899 112.981 44.1767 112.633 44.1767ZM116.106 38.9674L116.106 38.4465L113.502 39.1411C112.981 39.2279 112.547 39.4884 112.199 39.9225C111.939 40.2698 111.765 40.7907 111.765 41.2248C111.765 41.6589 111.852 42.093 112.199 42.4403C112.547 42.7876 112.981 42.8744 113.415 42.8744C113.936 42.8744 114.544 42.7008 114.978 42.3535C115.412 42.0062 115.759 41.6589 116.106 41.3116C116.106 40.4434 116.106 39.662 116.106 38.9674ZM122.097 42.1798C122.097 39.9225 122.184 37.9256 122.184 36.276L122.184 31.2403C122.184 30.6325 122.097 30.1984 121.923 30.1116C121.489 29.938 120.968 29.938 120.447 30.0248L120.447 29.5039C121.055 29.417 121.576 29.3302 122.097 29.2434C122.618 29.0698 123.226 28.8961 123.747 28.6356L124.094 28.8093C124.007 29.3302 123.92 29.7643 123.92 30.1984C123.92 30.5457 123.833 31.2403 123.833 32.1085L123.833 36.3628C123.833 38.0992 123.833 40.0961 123.92 42.2667C123.92 42.7876 124.007 43.1349 124.268 43.3085C124.702 43.4822 125.136 43.569 125.657 43.4822L125.657 44.0031C124.702 43.9163 123.833 43.9163 123.052 43.9163C122.271 43.9163 121.402 43.9163 120.447 44.0031L120.447 43.4822C120.882 43.569 121.402 43.4822 121.75 43.3085C121.923 43.0481 122.097 42.7008 122.097 42.1798ZM129.303 37.4915L129.303 40.7907C129.303 41.3984 129.477 41.9194 129.824 42.3535C130.171 42.7876 130.692 42.9612 131.213 42.9612C131.908 42.9612 132.602 42.7008 133.123 42.1798C133.644 41.8325 133.992 41.2248 133.992 40.5302L133.992 38.9674L133.992 36.6232C133.992 36.276 133.992 35.9287 133.818 35.5814C133.731 35.4077 133.471 35.4077 133.123 35.4077L132.342 35.4077L132.342 34.8868C132.95 34.8 133.471 34.7132 133.992 34.6263C134.513 34.4527 135.12 34.2791 135.641 34.1054L135.988 34.2791C135.902 34.6263 135.902 34.9736 135.815 35.3209C135.815 35.6682 135.815 36.4496 135.728 37.4915L135.728 38.9674L135.728 42.1798C135.728 42.7008 135.815 43.0481 136.075 43.2217C136.509 43.3953 137.03 43.4822 137.464 43.3953L137.464 43.9163L135.815 43.8294L134.078 43.8294L134.078 42.093C133.644 42.6139 133.21 43.0481 132.689 43.3953C131.995 43.9163 131.126 44.0899 130.345 44.0899C129.564 44.0899 128.869 43.9163 128.261 43.3953C127.74 42.8744 127.48 42.1798 127.48 41.3984L127.48 38.8806L127.48 36.5364C127.48 36.1891 127.48 35.8419 127.306 35.4946C127.22 35.3209 126.959 35.3209 126.612 35.3209L125.83 35.3209L125.83 34.8C126.438 34.7132 126.959 34.6263 127.48 34.5395C128.001 34.3659 128.609 34.1922 129.13 34.0186L129.477 34.1922C129.39 34.5395 129.303 34.8868 129.303 35.2341C129.303 35.5814 129.303 36.3628 129.303 37.4915ZM147.275 42.1798C147.275 42.7008 147.362 43.0481 147.623 43.2217C148.057 43.3953 148.491 43.4822 149.012 43.3953L149.012 43.9163C148.057 43.8294 147.188 43.8294 146.407 43.8294C145.626 43.8294 144.757 43.8294 143.802 43.9163L143.802 43.3953C144.237 43.4822 144.757 43.3953 145.105 43.2217C145.278 43.0481 145.365 42.7008 145.452 42.1798C145.452 39.9225 145.539 37.9256 145.539 36.276L145.539 31.2403C145.539 30.6325 145.452 30.1984 145.278 30.1116C144.757 29.938 144.237 29.938 143.716 30.0248L143.716 29.5039C144.323 29.417 144.844 29.3302 145.452 29.2434C146.06 29.0698 146.581 28.8961 147.188 28.6356L147.536 28.8093C147.449 29.3302 147.362 29.7643 147.362 30.1984C147.362 30.5457 147.275 31.2403 147.275 32.1085L147.275 36.3628L147.275 38.5333L147.362 38.5333C148.23 37.7519 149.012 37.1442 149.619 36.5364C150.227 35.9287 151.009 35.2341 151.877 34.3659L153.961 34.3659L153.961 34.8868L153.874 34.8868C153.44 34.9736 153.006 35.0605 152.658 35.2341C152.051 35.5814 151.53 35.9287 151.009 36.3628L150.314 36.8837L148.925 38.0124L151.009 40.0961L153.092 42.093C153.353 42.4403 153.7 42.7008 154.047 42.9612C154.308 43.0481 154.568 43.1349 154.829 43.1349L154.829 43.569L153.787 43.9163L152.745 44.2636C151.616 43.1349 150.748 42.1798 149.88 41.3984L147.102 38.707L147.275 42.1798ZM156.739 42.7876C155.784 41.7457 155.35 40.4434 155.35 39.1411C155.263 37.7519 155.784 36.4496 156.826 35.4946C157.781 34.5395 159.17 34.0186 160.559 34.1054C161.861 34.0186 163.077 34.5395 164.032 35.4077C164.9 36.276 165.421 37.5783 165.421 38.7938C165.508 40.2698 164.987 41.6589 163.945 42.7008C162.99 43.7426 161.601 44.2636 160.212 44.2636C158.823 44.2636 157.607 43.6558 156.739 42.7876ZM162.73 42.4403C163.251 41.5721 163.511 40.5302 163.511 39.5752C163.598 38.3597 163.25 37.1442 162.643 36.0155C162.122 35.1473 161.167 34.7132 160.125 34.7132C159.344 34.7132 158.562 35.0605 158.041 35.6682C157.52 36.4496 157.26 37.4046 157.26 38.3597C157.173 39.662 157.52 40.9643 158.128 42.093C158.649 42.9612 159.604 43.4822 160.559 43.4822C161.427 43.4822 162.209 43.1349 162.73 42.4403ZM167.678 42.1798C167.678 39.9225 167.765 37.9256 167.765 36.276L167.765 31.2403C167.765 30.6325 167.678 30.1984 167.505 30.1116C167.071 29.938 166.55 29.938 166.029 30.0248L166.029 29.5039C166.637 29.417 167.157 29.3302 167.678 29.2434C168.199 29.0698 168.807 28.8961 169.328 28.6356L169.675 28.8093C169.588 29.3302 169.502 29.7643 169.502 30.1984C169.502 30.6325 169.415 31.2403 169.415 32.1085L169.415 36.3628C169.415 38.0992 169.415 40.0961 169.502 42.2667C169.502 42.7876 169.588 43.1349 169.849 43.3085C170.283 43.4822 170.717 43.569 171.238 43.4822L171.238 44.0031C170.283 43.9163 169.415 43.9163 168.633 43.9163C167.852 43.9163 166.984 43.9163 166.029 44.0031L166.029 43.4822C166.463 43.569 166.984 43.4822 167.331 43.3085C167.592 43.0481 167.678 42.7008 167.678 42.1798ZM174.016 42.1798C174.016 39.9225 174.103 37.9256 174.103 36.276L174.103 31.2403C174.103 30.6325 174.016 30.1984 173.843 30.1116C173.409 29.938 172.888 29.938 172.367 30.0248L172.367 29.5039C172.975 29.417 173.495 29.3302 174.016 29.2434C174.537 29.0698 175.145 28.8961 175.666 28.6356L176.013 28.8093C175.926 29.3302 175.84 29.7643 175.84 30.1984C175.84 30.5457 175.753 31.2403 175.753 32.1085L175.753 36.3628C175.753 38.0992 175.753 40.0961 175.84 42.2667C175.84 42.7876 175.926 43.1349 176.187 43.3085C176.621 43.4822 177.055 43.569 177.576 43.4822L177.576 44.0031C176.621 43.9163 175.753 43.9163 174.971 43.9163C174.19 43.9163 173.322 43.9163 172.367 44.0031L172.367 43.4822C172.801 43.569 173.322 43.4822 173.669 43.3085C173.93 43.0481 174.016 42.7008 174.016 42.1798ZM182.699 44.1767C181.483 44.1767 180.268 43.6558 179.399 42.7876C178.531 41.7457 178.097 40.4434 178.097 39.1411C178.097 37.7519 178.618 36.4496 179.573 35.5814C180.528 34.6263 181.83 34.1054 183.219 34.1922C184.261 34.1922 185.216 34.6263 185.911 35.4077C186.519 36.1023 186.866 36.9705 186.953 37.8387L186.953 38.8806L184.869 39.1411L182.525 39.1411L180.007 39.1411C180.007 40.1829 180.354 41.138 180.875 42.0062C181.483 42.8744 182.438 43.3085 183.48 43.2217C184.001 43.2217 184.522 43.1349 185.043 43.048C185.564 42.8744 185.998 42.6139 186.432 42.2667L186.692 42.5271L186.345 43.3085C185.824 43.6558 185.216 43.9163 184.522 44.0899C183.914 44.0899 183.306 44.1767 182.699 44.1767ZM185.216 38.2729L185.216 37.9256C185.303 37.0574 185.043 36.276 184.522 35.5814C184.088 34.9736 183.393 34.7132 182.699 34.7132C181.917 34.7132 181.136 35.0605 180.615 35.6682C180.094 36.4496 179.833 37.3178 179.92 38.186L182.438 38.186L185.216 38.2729ZM192.77 44.1767C191.554 44.2636 190.426 43.7426 189.644 42.7876C188.863 41.8325 188.429 40.617 188.429 39.3147C188.516 37.9256 189.123 36.6232 190.165 35.755C191.12 34.7132 192.423 34.1054 193.725 34.0186C194.333 34.0186 194.94 34.1054 195.461 34.3659L196.069 34.6263L196.069 31.1535C196.069 30.5457 195.982 30.1116 195.809 30.0248C195.375 29.8512 194.854 29.8512 194.333 29.938L194.333 29.417C194.94 29.3302 195.461 29.2434 195.982 29.1566C196.503 28.9829 197.111 28.8093 197.632 28.5488L197.979 28.7225C197.892 29.2434 197.806 29.6775 197.806 30.1116C197.806 30.5457 197.719 31.1535 197.719 32.0217L197.719 36.276C197.719 38.0124 197.719 40.0093 197.806 42.1798C197.806 42.7008 197.892 43.0481 198.153 43.2217C198.587 43.3953 199.021 43.4822 199.542 43.3953L199.542 43.9163L197.806 43.9163L196.069 43.9163L196.069 42.093C195.461 42.7008 194.767 43.2217 194.072 43.7426C193.812 44.0899 193.291 44.1767 192.77 44.1767ZM193.291 34.8868C192.423 34.8868 191.554 35.2341 191.033 36.0155C190.426 36.8837 190.165 37.9256 190.252 38.9674C190.165 40.0093 190.513 40.9643 191.12 41.8325C191.641 42.5271 192.509 42.9612 193.378 42.9612C193.899 42.9612 194.506 42.7876 194.94 42.4403C195.461 42.093 195.809 41.5721 196.069 41.0512L196.069 36.276C195.722 35.9287 195.201 35.5814 194.68 35.3209C194.333 35.0605 193.812 34.9736 193.291 34.8868ZM200.844 43.4822C202.233 41.8325 203.362 40.3566 204.404 39.1411C205.272 38.0124 206.401 36.6232 207.53 35.0605C207.009 34.9736 206.488 34.9736 205.967 34.9736C205.533 34.9736 205.012 34.9736 204.491 35.0605C203.97 35.0605 203.362 35.1473 202.841 35.2341C202.668 35.3209 202.581 35.4077 202.581 35.6682L202.32 37.0574L201.713 37.0574C201.799 36.5364 201.799 36.0155 201.886 35.6682C201.886 35.2341 201.973 34.8 201.973 34.2791L206.748 34.3659L210.134 34.2791L210.134 34.7132C208.745 36.3628 207.616 37.8387 206.575 39.0543L203.449 43.1349C204.144 43.2217 204.838 43.2217 205.533 43.2217C206.14 43.2217 206.835 43.2217 207.53 43.1349C208.051 43.1349 208.658 43.0481 209.179 42.9612C209.353 42.8744 209.44 42.7008 209.44 42.4403L209.7 40.8775L210.308 40.8775C210.221 41.4853 210.221 42.0062 210.134 42.4403C210.134 42.8744 210.047 43.3953 210.047 44.0031L204.144 43.9163L200.757 44.0031L200.844 43.4822ZM205.446 33.324C204.925 32.6294 204.578 32.0217 204.144 31.5876C203.709 31.1535 203.362 30.5457 202.841 29.8512L203.536 29.8512L205.967 32.1085L208.398 29.8512L209.092 29.8512L206.488 33.324L205.446 33.324Z" fill="white"/>
</svg>
